<?xml version="1.0" encoding="UTF-8" standalone="no"?>
<!-- Created with Inkscape (http://www.inkscape.org/) -->

<svg
   xmlns:dc="http://purl.org/dc/elements/1.1/"
   xmlns:cc="http://creativecommons.org/ns#"
   xmlns:rdf="http://www.w3.org/1999/02/22-rdf-syntax-ns#"
   xmlns:svg="http://www.w3.org/2000/svg"
   xmlns="http://www.w3.org/2000/svg"
   xmlns:sodipodi="http://sodipodi.sourceforge.net/DTD/sodipodi-0.dtd"
   xmlns:inkscape="http://www.inkscape.org/namespaces/inkscape"
   version="1.1"
   id="svg2"
   xml:space="preserve"
   width="85.333336"
   height="85.333336"
   viewBox="0 0 85.333336 85.333336"
   sodipodi:docname="logo.svg"
   inkscape:version="0.92.5 (2060ec1f9f, 2020-04-08)"><metadata
     id="metadata8"><rdf:RDF><cc:Work
         rdf:about=""><dc:format>image/svg+xml</dc:format><dc:type
           rdf:resource="http://purl.org/dc/dcmitype/StillImage" /><dc:title></dc:title></cc:Work></rdf:RDF></metadata><defs
     id="defs6" /><sodipodi:namedview
     pagecolor="#ffffff"
     bordercolor="#666666"
     borderopacity="1"
     objecttolerance="10"
     gridtolerance="10"
     guidetolerance="10"
     inkscape:pageopacity="0"
     inkscape:pageshadow="2"
     inkscape:window-width="3840"
     inkscape:window-height="2042"
     id="namedview4"
     showgrid="false"
     inkscape:zoom="15.644737"
     inkscape:cx="14.92582"
     inkscape:cy="42.666668"
     inkscape:window-x="0"
     inkscape:window-y="54"
     inkscape:window-maximized="1"
     inkscape:current-layer="g12" /><g
     id="g10"
     inkscape:groupmode="layer"
     inkscape:label="ink_ext_XXXXXX"
     transform="matrix(1.3333333,0,0,-1.3333333,0,85.333333)"><g
       id="g12"
       transform="scale(0.1)"><rect
         style="fill:#6e758d;fill-opacity:1;stroke-width:7.5"
         id="rect4540"
         width="649.1001"
         height="649.1001"
         x="-2.8763669"
         y="-644.30615"
         transform="scale(1,-1)" /><g
         id="g4552"
         style="fill:#32323c;fill-opacity:1"><g
           style="fill:#32323c;fill-opacity:1"
           id="g4545"><path
             d="m 190,140 c -49.707,0 -90,40.293 -90,90 0,49.707 40.293,90 90,90 49.703,0 90,-40.293 90,-90 0,-49.707 -40.297,-90 -90,-90 m 0,150 c -33.086,0 -60,-26.918 -60,-60 0,-33.082 26.914,-60 60,-60 33.086,0 60,26.918 60,60 0,33.082 -26.914,60 -60,60"
             style="fill:#32323c;fill-opacity:1;fill-rule:nonzero;stroke:none"
             id="path16"
             inkscape:connector-curvature="0" /><path
             d="m 460,140 c -49.707,0 -90,40.293 -90,90 0,49.707 40.293,90 90,90 49.703,0 90,-40.293 90,-90 0,-49.707 -40.297,-90 -90,-90 m 0,150 c -33.082,0 -60,-26.918 -60,-60 0,-33.082 26.918,-60 60,-60 33.086,0 60,26.918 60,60 0,33.082 -26.914,60 -60,60"
             style="fill:#32323c;fill-opacity:1;fill-rule:nonzero;stroke:none"
             id="path18"
             inkscape:connector-curvature="0" /><path
             d="m 325,195.02 c -8.281,0 -15,6.714 -15,15 v 72.976 l -82.285,79.328 c -2.902,2.797 -4.551,6.637 -4.59,10.664 -0.039,4.024 1.543,7.895 4.395,10.742 l 51.875,51.875 c 2.914,2.926 6.753,4.399 10.601,4.399 3.645,0 7.297,-1.32 10.18,-3.984 L 360.867,380 H 390 c 8.281,0 15,-6.715 15,-15 0,-8.285 -6.719,-15 -15,-15 h -35 c -3.77,0 -7.402,1.422 -10.176,3.98 l -54.402,50.223 -30.891,-30.883 75.879,-73.144 c 2.93,-2.828 4.59,-6.731 4.59,-10.801 V 210.02 c 0,-8.286 -6.719,-15 -15,-15"
             style="fill:#32323c;fill-opacity:1;fill-rule:nonzero;stroke:none"
             id="path20"
             inkscape:connector-curvature="0" /></g><path
           inkscape:connector-curvature="0"
           id="path22"
           style="fill:#32323c;fill-opacity:1;fill-rule:nonzero;stroke:none"
           d="m 345,440 c -19.328,0 -35,15.672 -35,35 0,19.328 15.672,35 35,35 19.328,0 35,-15.672 35,-35 0,-19.328 -15.672,-35 -35,-35" /></g><g
         id="g4558"
         transform="translate(4.3145501,-20.613962)"><path
           inkscape:connector-curvature="0"
           id="path24"
           style="fill:#ffffff;fill-opacity:1;fill-rule:nonzero;stroke:none"
           d="m 205,340 c -49.707,0 -90,-40.293 -90,-90 0,-49.707 40.293,-90 90,-90 49.707,0 90,40.293 90,90 0,49.707 -40.293,90 -90,90 z m 0,-30 c 33.086,0 60,-26.918 60,-60 0,-33.082 -26.914,-60 -60,-60 -33.086,0 -60,26.918 -60,60 0,33.082 26.914,60 60,60" /><path
           inkscape:connector-curvature="0"
           id="path26"
           style="fill:#ffffff;fill-opacity:1;fill-rule:nonzero;stroke:none"
           d="m 475,340 c -49.707,0 -90,-40.293 -90,-90 0,-49.707 40.293,-90 90,-90 49.707,0 90,40.293 90,90 0,49.707 -40.293,90 -90,90 z m 0,-30 c 33.086,0 60,-26.918 60,-60 0,-33.082 -26.914,-60 -60,-60 -33.082,0 -60,26.918 -60,60 0,33.082 26.918,60 60,60" /><path
           inkscape:connector-curvature="0"
           id="path28"
           style="fill:#ffffff;fill-opacity:1;fill-rule:nonzero;stroke:none"
           d="m 355,230.016 v 79.359 c 0,4.066 -1.664,7.98 -4.59,10.801 l -75.879,73.148 30.883,30.879 54.41,-50.226 C 362.598,371.418 366.227,370 370,370 h 35 c 8.281,0 15,6.719 15,15 0,8.285 -6.719,15 -15,15 h -29.137 l -60.687,56.023 c -5.922,5.465 -15.086,5.282 -20.781,-0.418 L 242.52,403.73 c -2.836,-2.832 -4.43,-6.734 -4.395,-10.742 0.035,-4.008 1.703,-7.879 4.59,-10.66 L 325,303.004 v -72.988 c 0,-8.282 6.715,-15 15,-15 8.285,0 15,6.718 15,15" /><path
           inkscape:connector-curvature="0"
           id="path30"
           style="fill:#ffffff;fill-opacity:1;fill-rule:nonzero;stroke:none"
           d="m 395,495 c 0,-19.328 -15.672,-35 -35,-35 -19.328,0 -35,15.672 -35,35 0,19.328 15.672,35 35,35 19.328,0 35,-15.672 35,-35" /></g></g></g></svg>